<svg id="visual" viewBox="0 0 960 540" width="960" height="540" xmlns="http://www.w3.org/2000/svg" xmlns:xlink="http://www.w3.org/1999/xlink" version="1.1"><path d="M0 385L26.7 379.8C53.3 374.7 106.7 364.3 160 362.7C213.3 361 266.7 368 320 367.8C373.3 367.7 426.7 360.3 480 354.5C533.3 348.7 586.7 344.3 640 349.8C693.3 355.3 746.7 370.7 800 367.7C853.3 364.7 906.7 343.3 933.3 332.7L960 322L960 541L933.3 541C906.7 541 853.3 541 800 541C746.7 541 693.3 541 640 541C586.7 541 533.3 541 480 541C426.7 541 373.3 541 320 541C266.7 541 213.3 541 160 541C106.7 541 53.3 541 26.7 541L0 541Z" fill="#e3eeff"></path><path d="M0 420L26.7 416.5C53.3 413 106.7 406 160 409.2C213.3 412.3 266.7 425.7 320 433.3C373.3 441 426.7 443 480 440.2C533.3 437.3 586.7 429.7 640 420C693.3 410.3 746.7 398.7 800 397C853.3 395.3 906.7 403.7 933.3 407.8L960 412L960 541L933.3 541C906.7 541 853.3 541 800 541C746.7 541 693.3 541 640 541C586.7 541 533.3 541 480 541C426.7 541 373.3 541 320 541C266.7 541 213.3 541 160 541C106.7 541 53.3 541 26.7 541L0 541Z" fill="#a3cdff"></path><path d="M0 449L26.7 448.8C53.3 448.7 106.7 448.3 160 452.8C213.3 457.3 266.7 466.7 320 465.3C373.3 464 426.7 452 480 455C533.3 458 586.7 476 640 481.7C693.3 487.3 746.7 480.7 800 475.5C853.3 470.3 906.7 466.7 933.3 464.8L960 463L960 541L933.3 541C906.7 541 853.3 541 800 541C746.7 541 693.3 541 640 541C586.7 541 533.3 541 480 541C426.7 541 373.3 541 320 541C266.7 541 213.3 541 160 541C106.7 541 53.3 541 26.7 541L0 541Z" fill="#48adff"></path></svg>